<svg version="1" xmlns="http://www.w3.org/2000/svg" width="666.667" height="666.667" viewBox="0 0 500.000000 500.000000"><path d="M0 250v250h500V0H0v250zm452.8-104.8l.2 95.8H264v-95.4c0-75.4.3-95.5 1.3-95.9.6-.3 43.1-.5 94.2-.4l93 .2.3 95.7zM245 145v95H56v-94.3c0-51.9.3-94.7.7-95 .3-.4 42.9-.7 94.5-.7H245v95zm208 114.9c.7 1.4.9 32.1.8 95.3l-.3 93.3-94.7.3-94.8.2v-94.8c0-52.2.3-95.2.7-95.5.3-.4 42.6-.7 93.9-.7 91.4 0 93.4 0 94.4 1.9zm-207.2 93.8l-.3 94.8-94.7.3-94.8.2V259h190l-.2 94.7z"/><path d="M320 93.4c0 .5 26.7 84.8 32.1 101.3l2.1 6.3h11.3l16.8-52.8c9.2-29 16.8-53.3 16.7-54 0-.8-1.8-1.2-5.5-1.2-4.2 0-5.6.4-6.3 1.7-.5 1-6.6 20.7-13.6 43.8-7 23.1-13.1 42.3-13.5 42.8-.4.4-6.8-19.2-14.2-43.5l-13.5-44.3-6.2-.3c-3.4-.2-6.2-.1-6.2.2zM100.5 95.2c.3 1.3 5.4 25.5 11.4 53.8l10.7 51.5 5.1.3 5.1.3 7.7-23.8c4.2-13.1 8.6-26.9 9.8-30.6l2.2-6.8 3.7 11.3c2 6.2 6.5 20 9.9 30.6l6.1 19.3 5.1-.3 5.1-.3 10.7-51c5.9-28.1 11-52.3 11.3-53.8l.6-2.8-6.2.3-6.2.3-8.1 40.5c-4.5 22.3-8.3 41.1-8.6 41.7-.2.7-4.5-11.4-9.4-27l-9.1-28.2-4.6-.3-4.5-.3-4.6 14.3c-2.5 7.9-6.5 20.5-8.9 28-2.3 7.6-4.5 13.8-4.8 13.8-.3 0-3.4-14.3-6.8-31.8-3.5-17.4-7.3-36.1-8.4-41.5l-2.1-9.7h-6.4c-6.1 0-6.3.1-5.8 2.2zM319 281.5c-15.3 2.2-26.9 6.6-32 12l-2.5 2.7-.3 53.3-.3 53.3 2.7 3.1c7.3 8.7 28.7 14.1 56 14.1 7.8 0 16.2-.3 18.7-.6l4.6-.7-2.7-4-2.6-4-9.1.7c-18.3 1.3-44.4-2.4-53.9-7.7l-4.1-2.2-.3-11.3c-.1-6.1-.1-11.2.1-11.2.1 0 2.7.9 5.7 1.9 11 3.9 20.3 5.2 39.6 5.8l19.1.6 1.4-4.5 1.5-4.4H344c-22.4 0-38.9-2.9-47.7-8.4l-3.3-2v-11c0-6 .3-11 .8-11 .4 0 3.1.9 6.1 2.1 11.9 4.5 19.3 5.4 43.6 5.4 24.5-.1 35-1.5 46-6.4l4.5-2v8.5l4-.4 4-.4v-27.9c0-31.4.1-31-7.4-35.4-10.5-6.1-29.9-9.6-52.3-9.4-8.2.1-18.6.7-23.3 1.4zm48.5 8.6c9 1.4 21.8 5.6 24.4 8 2.8 2.6 1.8 4.4-4.2 7.2-12.8 6-36.1 8.8-57.2 6.9-20.3-1.8-36.4-6.8-37.3-11.4-.9-4.7 15.7-9.9 39.3-12.2 5.9-.6 27 .3 35 1.5zM394 323c0 12.7-.4 13.4-9.8 16.8-11.2 4.1-22.6 5.6-41.7 5.5-20.6 0-33.8-2.2-43.4-7l-5.6-2.8-.3-11.3c-.1-6.1-.1-11.2.1-11.2.1 0 2.9.9 6.1 2 12.9 4.6 20 5.5 43.6 5.5 26.9 0 35.3-1.4 50.8-8.4.1 0 .2 4.8.2 10.9z"/><path d="M384.7 359.4c-15.6 6.4-24.6 20.6-23.5 37 .9 13.3 9.4 25.7 21.6 31.4 4.9 2.3 7 2.7 15.2 2.7 8.7 0 10.1-.3 16.2-3.3 7.5-3.7 14.3-10.4 18-18 2-4 2.3-6.2 2.3-15.2 0-8.7-.4-11.3-2.2-15.2-2.5-5.4-9.3-13.1-14.3-16.3-9.6-6-23.1-7.2-33.3-3.1zm26.2 9.1c10.2 5.1 17 17.1 15.8 27.5-1.9 15.6-13.6 26.3-28.8 26.4-11.5 0-21.8-6.9-26.3-17.8-2-4.9-2.1-16.5-.1-21.2 6.5-15.5 24.7-22.4 39.4-14.9z"/><path d="M395.4 374.7c-1.6 5.1-4 6.4-8 4.3-4.7-2.6-6.9.8-3.8 5.6 1.5 2.3 1.5 2.6-.1 4.4-.9 1-2.7 2-3.9 2.2-1.5.2-2.1 1-2.1 2.8 0 1.8.6 2.6 2.1 2.8 1.2.2 3 1.2 3.9 2.2 1.6 1.8 1.6 2-.1 4.8-.9 1.6-1.4 3.7-1.1 4.6.7 1.8 4.2 2.2 5.2.6.9-1.4 5.1-1.2 6.3.2.5.7 1.1 2.2 1.4 3.3.2 1.3 1.2 2.1 2.9 2.3 2.2.3 2.7-.2 3.5-3 1-3.5 4.6-5 6.7-2.9 1.4 1.4 4.4 1.4 5.3 0 .3-.6.1-2.9-.6-5-1.5-4.5-.3-6.9 3.5-6.9 2.5 0 3.8-2.1 2.9-4.5-.4-.8-1.6-1.5-2.8-1.5-1.2 0-2.7-.5-3.4-1.2-1.5-1.5-1.6-5.4-.2-6.3 1.6-1 1.2-4.5-.6-5.2-.8-.3-2.6 0-3.8.7-3.5 1.8-5.9.9-7-2.8-.7-2.4-1.4-3.2-3.3-3.2-1.4 0-2.6.7-2.9 1.7zm8.6 13.8c4.8 5.1 1.2 13.5-5.7 13.5-7 0-10.6-7.8-6.2-13.4 2.8-3.6 8.6-3.6 11.9-.1zM116 347.5v53.7l19.8-.5c21.8-.4 24.4-1 31.8-6.6 6.5-4.9 11-11.1 13.1-17.9 2.6-8.4 2.6-49 0-57.4-2.1-6.8-6.6-13-13.1-17.9-7.4-5.6-10-6.2-31.8-6.6l-19.8-.5v53.7zm38.1-40.4c2.1.7 5.4 2.5 7.4 4.1 7.3 6.1 9.5 14.3 9.5 35.7 0 22.4-2.2 30.8-9.5 36.9-5.1 4.1-9.6 5.2-22.4 5.2H128v-83h11.1c6.2 0 12.9.5 15 1.1z"/></svg>